<?xml version="1.0" encoding="UTF-8"?>
<svg xmlns="http://www.w3.org/2000/svg" width="24" height="24" viewBox="0 0 24 24" fill="none">
  <path d="M12 5.15C8.22 5.15 5.25 8.04 5.25 11.6C5.25 13.3 5.92 14.83 7.03 15.96L6.35 18.65L9.02 17.93C9.92 18.28 10.92 18.48 12 18.48C15.78 18.48 18.75 15.59 18.75 12.03C18.75 8.47 15.78 5.15 12 5.15Z" stroke="currentColor" stroke-width="1.45" vector-effect="non-scaling-stroke" stroke-linecap="round" stroke-linejoin="round"/>
  <path d="M9.52 9.56C9.28 9.56 9.05 9.67 8.9 9.87C8.62 10.23 8.42 10.79 8.58 11.43C8.87 12.53 9.72 13.66 10.78 14.38C11.87 15.13 13.15 15.44 14.16 15.19C14.74 15.05 15.16 14.72 15.37 14.34C15.47 14.16 15.43 13.93 15.28 13.78L14.61 13.12C14.42 12.93 14.11 12.92 13.91 13.1L13.53 13.44C13.41 13.55 13.23 13.58 13.08 13.51C12.62 13.29 12.18 12.99 11.77 12.63C11.39 12.24 11.08 11.82 10.86 11.38C10.79 11.23 10.81 11.05 10.91 10.92L11.21 10.57C11.38 10.37 11.37 10.08 11.18 9.9L10.58 9.3C10.43 9.14 10.2 9.08 10.02 9.16C9.86 9.23 9.69 9.34 9.52 9.56Z" fill="currentColor"/>
</svg>
